# xmcd
#
# Track frame offsets: 
#        150
#        20565
#        34844
#        49492
#        66353
#        85037
#        102113
#        119765
#        138607
#        160782
#
# Disc length: 2374 seconds
#
# Revision: 0
# Processed by: cddbd v1.5.2PL0 Copyright (c) Steve Scherf et al.
# Submitted via: ExactAudioCopy v1.3
#
DISCID=8c09440a
DTITLE=Moorea Masa and the Mood - Shine a light
DYEAR=2018
DGENRE=Indie
TTITLE0=The garden
TTITLE1=Be somebody
TTITLE2=Ever morning
TTITLE3=I can´t tell
TTITLE4=Natures song
TTITLE5=Don´t let me run
TTITLE6=Wanna be close
TTITLE7=Conversation
TTITLE8=Wake up - lover be found
TTITLE9=Shina a light
EXTD=
EXTT0=
EXTT1=
EXTT2=
EXTT3=
EXTT4=
EXTT5=
EXTT6=
EXTT7=
EXTT8=
EXTT9=
PLAYORDER=
